<!-- created by svgstack.com | Attribution is required. --><svg width="201" height="201" viewBox="0 0 201 201" fill="none" xmlns="http://www.w3.org/2000/svg"><path d="M200.886 100.734C200.886 45.4891 156.115 0.704346 100.886 0.704346C45.6577 0.704346 0.886108 45.4891 0.886108 100.734C0.886108 155.979 45.6577 200.763 100.886 200.763C156.115 200.763 200.886 155.979 200.886 100.734Z" fill="#f5f5f5ff"/><path d="M163.854 80.0053C163.067 72.407 161.374 64.0074 155.141 59.5932C150.314 56.1701 143.968 56.0435 138.045 56.0505C125.523 56.0505 112.994 56.0716 100.472 56.0787C88.4275 56.0927 76.3834 56.0998 64.3392 56.1138C59.308 56.1138 54.4172 55.7272 49.7443 57.9062C45.732 59.7759 42.5909 63.3326 40.7007 67.2899C38.0796 72.7936 37.5316 79.0283 37.2154 85.1154C36.6321 96.2001 36.6954 107.313 37.391 118.391C37.904 126.474 39.204 135.408 45.4509 140.56C50.9881 145.122 58.802 145.347 65.9835 145.354C88.7788 145.375 111.581 145.396 134.384 145.41C137.307 145.417 140.356 145.361 143.336 145.038C149.196 144.405 154.783 142.725 158.549 138.381C162.351 134.002 163.327 127.908 163.904 122.137C165.309 108.135 165.295 94 163.854 80.0053ZM87.2892 120.359V81.1018L121.271 100.727L87.2892 120.359Z" fill="#363434ff"/></svg> 